<svg xmlns="http://www.w3.org/2000/svg" xmlns:xlink="http://www.w3.org/1999/xlink" version="1.1" id="Layer_1" x="0px" y="0px" width="100%" viewBox="0 0 2048 2048" enable-background="new 0 0 2048 2048" xml:space="preserve">
    <path fill="#FB3EF9" opacity="1.000000" stroke="none" d=" M1.000000,1025.000000   C1.000000,683.734619 1.000000,342.469269 1.000000,1.000000   C342.030884,1.000000 683.061829,1.000000 1024.546387,1.453632   C1025.000000,340.962799 1025.000000,680.018311 1025.003174,1019.073853   C1025.003174,1021.072327 1025.049927,1023.070862 1024.614502,1025.037964   C683.102600,1025.004395 342.051300,1025.002197 1.000000,1025.000000  z"/>
    <path fill="#000000" opacity="1.000000" stroke="none" d=" M1025.074951,1025.069336   C1025.049927,1023.070862 1025.003174,1021.072327 1025.003174,1019.073853   C1025.000000,680.018311 1025.000000,340.962799 1025.000000,1.453632   C1366.265503,1.000000 1707.530884,1.000000 2049.000000,1.000000   C2049.000000,342.030884 2049.000000,683.061829 2048.546387,1024.546387   C1709.203735,1025.000000 1370.314819,1025.000122 1031.425781,1024.997070   C1029.260498,1024.997070 1027.095337,1024.953369 1024.965820,1024.965332   C1025.001709,1025.000488 1025.074951,1025.069336 1025.074951,1025.069336  z"/>
    <path fill="#000000" opacity="1.000000" stroke="none" d=" M1.000000,1025.453613   C342.051300,1025.002197 683.102600,1025.004395 1024.614502,1025.037964   C1025.074951,1025.069336 1025.001709,1025.000488 1024.997559,1025.425049   C1024.995605,1366.899658 1024.997803,1707.949829 1025.000000,2049.000000   C683.734558,2049.000000 342.469116,2049.000000 1.000000,2049.000000   C1.000000,1707.969116 1.000000,1366.938110 1.000000,1025.453613  z"/>
    <path fill="#FB3EF9" opacity="1.000000" stroke="none" d=" M1025.453613,2049.000000   C1024.997803,1707.949829 1024.995605,1366.899658 1024.961670,1025.389771   C1027.095337,1024.953369 1029.260498,1024.997070 1031.425781,1024.997070   C1370.314819,1025.000122 1709.203735,1025.000000 2048.546387,1025.000000   C2049.000000,1366.265503 2049.000000,1707.530884 2049.000000,2049.000000   C1707.969116,2049.000000 1366.938110,2049.000000 1025.453613,2049.000000  z"/>
</svg>